<svg width="40" height="38" viewBox="0 0 40 38" fill="none" xmlns="http://www.w3.org/2000/svg">
<path d="M7.27272 9.04761H20V12.6667H7.27272V9.04761ZM7.27272 19.9048H14.5454V23.5238H7.27272V19.9048Z" fill="white"/>
<path d="M23.6364 19.8505V27.1429H7.27273L3.63636 30.762V5.42862H23.6364V9.10195C24.5818 7.85338 25.8182 6.84005 27.2727 6.20671V5.42862C27.2727 3.43814 25.6364 1.80957 23.6364 1.80957H3.63636C1.63636 1.80957 0.0181818 3.43814 0.0181818 5.42862L0 38L7.27273 30.762H23.6364C25.6364 30.762 27.2727 29.1334 27.2727 27.1429V22.7639C25.8333 22.1132 24.5825 21.111 23.6364 19.8505Z" fill="white"/>
<path d="M7.27272 14.4762H20V18.0952H7.27272V14.4762ZM32.7273 9.37333C32.1636 9.17428 31.5454 9.04762 30.9091 9.04762C27.8909 9.04762 25.4545 11.4724 25.4545 14.4762C25.4545 17.48 27.8909 19.9048 30.9091 19.9048C33.9273 19.9048 36.3636 17.48 36.3636 14.4762V3.61905H40V0H32.7273V9.37333Z" fill="white"/>
</svg>
