<svg width="34" height="32" viewBox="0 0 34 32" fill="none" xmlns="http://www.w3.org/2000/svg">
<path d="M30 5.29407H3.47368C2.65979 5.29407 2 6.03148 2 6.94113V28.3529C2 29.2625 2.65979 29.9999 3.47368 29.9999H30C30.8139 29.9999 31.4737 29.2625 31.4737 28.3529V6.94113C31.4737 6.03148 30.8139 5.29407 30 5.29407Z" fill="white" stroke="white" stroke-width="4" stroke-linecap="round" stroke-linejoin="round"/>
<path d="M9.36841 2V8.58824V2Z" fill="white"/>
<path d="M9.36841 2V8.58824" stroke="white" stroke-width="4" stroke-linecap="round"/>
<path d="M17.4737 16H9.36841H17.4737Z" fill="white"/>
<path d="M17.4737 16H9.36841" stroke="black" stroke-width="4" stroke-linecap="round"/>
<path d="M24.1053 22.5883H9.36841H24.1053Z" fill="white"/>
<path d="M24.1053 22.5883H9.36841" stroke="black" stroke-width="4" stroke-linecap="round"/>
<path d="M24.1053 2V8.58824V2Z" fill="white"/>
<path d="M24.1053 2V8.58824" stroke="white" stroke-width="4" stroke-linecap="round"/>
</svg>
