<svg width="38" height="40" viewBox="0 0 38 40" fill="none" xmlns="http://www.w3.org/2000/svg">
<path d="M35 36C28.1 36 19 40 19 40V18C19 18 28 14 37 14L35 36Z" fill="white"/>
<path d="M3 36C9.9 36 19 40 19 40V18C19 18 10 14 1 14L3 36Z" fill="white" fill-opacity="0.75"/>
<path d="M19 16C23.4183 16 27 12.4183 27 8C27 3.58172 23.4183 0 19 0C14.5817 0 11 3.58172 11 8C11 12.4183 14.5817 16 19 16Z" fill="#FFB74D"/>
<path d="M36 28H37C37.6 28 38 27.6 38 27V23C38 22.4 37.6 22 37 22H36C34.3 22 33 23.3 33 25C33 26.7 34.3 28 36 28ZM2 22H1C0.4 22 0 22.4 0 23V27C0 27.6 0.4 28 1 28H2C3.7 28 5 26.7 5 25C5 23.3 3.7 22 2 22Z" fill="#FFB74D"/>
<line y1="-0.5" x2="8.82122" y2="-0.5" transform="matrix(0.00820296 0.999966 -0.980785 -0.19509 9.88394 21.5736)" stroke="white"/>
<line y1="-0.5" x2="6.37088" y2="-0.5" transform="matrix(-0.980785 -0.19509 -0.00820296 -0.999966 13.2686 24.6931)" stroke="white"/>
</svg>
